<?xml version="1.0" encoding="UTF-8" standalone="no"?>
<!-- Created with Inkscape (http://www.inkscape.org/) -->

<svg
   xmlns:dc="http://purl.org/dc/elements/1.1/"
   xmlns:cc="http://creativecommons.org/ns#"
   xmlns:rdf="http://www.w3.org/1999/02/22-rdf-syntax-ns#"
   xmlns:svg="http://www.w3.org/2000/svg"
   xmlns="http://www.w3.org/2000/svg"
   xmlns:xlink="http://www.w3.org/1999/xlink"
   xmlns:sodipodi="http://sodipodi.sourceforge.net/DTD/sodipodi-0.dtd"
   xmlns:inkscape="http://www.inkscape.org/namespaces/inkscape"
   width="128"
   height="128"
   viewBox="0 0 128 128"
   id="svg2"
   version="1.1"
   inkscape:version="0.92.0 r"
   sodipodi:docname="logo.svg"
   inkscape:export-filename="/home/william/Documents/git/Original/mc-resource-packer/logo.png"
   inkscape:export-xdpi="768"
   inkscape:export-ydpi="768">
  <sodipodi:namedview
     id="base"
     pagecolor="#ffffff"
     bordercolor="#666666"
     borderopacity="1.0"
     inkscape:pageopacity="0.0"
     inkscape:pageshadow="2"
     inkscape:zoom="8"
     inkscape:cx="49.746816"
     inkscape:cy="62.530062"
     inkscape:document-units="px"
     inkscape:current-layer="layer1"
     showgrid="true"
     units="px"
     width="512px"
     inkscape:window-width="3840"
     inkscape:window-height="2018"
     inkscape:window-x="0"
     inkscape:window-y="86"
     inkscape:window-maximized="1"
     inkscape:snap-bbox="false"
     inkscape:bbox-nodes="true"
     inkscape:bbox-paths="true"
     inkscape:snap-bbox-midpoints="true"
     inkscape:object-nodes="true"
     inkscape:object-paths="true"
     inkscape:snap-smooth-nodes="true"
     inkscape:snap-nodes="true"
     inkscape:snap-grids="true"
     inkscape:snap-object-midpoints="true"
     showguides="false">
    <inkscape:grid
       type="xygrid"
       id="grid3338"
       empspacing="8" />
  </sodipodi:namedview>
  <defs
     id="defs4">
    <linearGradient
       inkscape:collect="always"
       id="linearGradient5772">
      <stop
         style="stop-color:#000000;stop-opacity:0.55334985"
         offset="0"
         id="stop5768" />
      <stop
         style="stop-color:#000000;stop-opacity:0.05210918"
         offset="1"
         id="stop5770" />
    </linearGradient>
    <linearGradient
       inkscape:collect="always"
       id="linearGradient5661">
      <stop
         style="stop-color:#000000;stop-opacity:1;"
         offset="0"
         id="stop5657" />
      <stop
         style="stop-color:#000000;stop-opacity:0;"
         offset="1"
         id="stop5659" />
    </linearGradient>
    <linearGradient
       id="linearGradient5402"
       inkscape:collect="always">
      <stop
         id="stop5398"
         offset="0"
         style="stop-color:#880e4f;stop-opacity:1" />
      <stop
         id="stop5400"
         offset="1"
         style="stop-color:#e53935;stop-opacity:1" />
    </linearGradient>
    <inkscape:perspective
       id="perspective4904"
       inkscape:persp3d-origin="64 : 42.666667 : 1"
       inkscape:vp_z="128 : 64 : 1"
       inkscape:vp_y="0 : 1000 : 0"
       inkscape:vp_x="-184 : 40 : 1"
       sodipodi:type="inkscape:persp3d" />
    <linearGradient
       gradientUnits="userSpaceOnUse"
       y2="24"
       x2="104"
       y1="0"
       x1="128"
       id="linearGradient5404"
       xlink:href="#linearGradient5402"
       inkscape:collect="always" />
    <linearGradient
       inkscape:collect="always"
       xlink:href="#linearGradient5402"
       id="linearGradient5617"
       gradientUnits="userSpaceOnUse"
       x1="128"
       y1="0"
       x2="104"
       y2="24" />
    <linearGradient
       inkscape:collect="always"
       xlink:href="#linearGradient5661"
       id="linearGradient5663"
       x1="104"
       y1="24"
       x2="104"
       y2="27"
       gradientUnits="userSpaceOnUse" />
    <linearGradient
       inkscape:collect="always"
       xlink:href="#linearGradient5661"
       id="linearGradient5668"
       gradientUnits="userSpaceOnUse"
       x1="104"
       y1="24"
       x2="104"
       y2="32" />
    <linearGradient
       inkscape:collect="always"
       xlink:href="#linearGradient5402"
       id="linearGradient5684"
       gradientUnits="userSpaceOnUse"
       x1="128"
       y1="0"
       x2="104"
       y2="24" />
    <linearGradient
       inkscape:collect="always"
       xlink:href="#linearGradient5772"
       id="linearGradient5695"
       gradientUnits="userSpaceOnUse"
       x1="128.00005"
       y1="-3.9999999e-05"
       x2="104"
       y2="24"
       gradientTransform="translate(-4.3688002e-5,924.36224)" />
    <linearGradient
       inkscape:collect="always"
       xlink:href="#linearGradient5661"
       id="linearGradient5704"
       gradientUnits="userSpaceOnUse"
       x1="104"
       y1="24"
       x2="104"
       y2="32" />
    <linearGradient
       inkscape:collect="always"
       xlink:href="#linearGradient5661"
       id="linearGradient5711"
       gradientUnits="userSpaceOnUse"
       x1="104"
       y1="24"
       x2="104"
       y2="32" />
  </defs>
  <metadata
     id="metadata7">
    <rdf:RDF>
      <cc:Work
         rdf:about="">
        <dc:format>image/svg+xml</dc:format>
        <dc:type
           rdf:resource="http://purl.org/dc/dcmitype/StillImage" />
        <dc:title />
      </cc:Work>
    </rdf:RDF>
  </metadata>
  <g
     inkscape:label="Layer 1"
     inkscape:groupmode="layer"
     id="layer1"
     transform="translate(0,-924.3622)">
    <path
       id="path5225"
       d="M 64 0 A 64 64 0 0 0 0 64 A 64 64 0 0 0 64 128 A 64 64 0 0 0 128 64 L 128 32 A 8 8 0 0 0 125.6543 26.345703 L 125.65625 26.34375 L 123.3125 24 L 104 4.6875 L 101.73828 2.4257812 L 101.65625 2.34375 L 101.6543 2.3457031 A 8 8 0 0 0 96 0 L 64 0 z "
       style="opacity:1;fill:#b73c69;fill-opacity:1;fill-rule:evenodd;stroke:none;stroke-width:10;stroke-linecap:round;stroke-linejoin:round;stroke-miterlimit:4;stroke-dasharray:none;stroke-opacity:1"
       transform="translate(0,924.3622)" />
    <g
       id="g5766"
       style="opacity:0.35">
      <path
         id="path5670"
         transform="translate(0,924.3622)"
         d="M 64 4 C 30.886604 4 4 30.8866 4 64 C 4 97.1134 30.886604 124 64 124 C 97.113396 124 124 97.1134 124 64 C 124 48.636725 118.20517 34.619215 108.69336 24 L 108 24 C 105.79087 24 104 22.20912 104 20 L 104 19.306641 C 93.380784 9.7948268 79.363273 4 64 4 z M 64 8 C 94.951635 8 120 33.04837 120 64 C 120 94.9516 94.951635 120 64 120 C 33.048365 120 8 94.9516 8 64 C 8 33.04837 33.048365 8 64 8 z "
         style="color:#000000;font-style:normal;font-variant:normal;font-weight:normal;font-stretch:normal;font-size:medium;line-height:normal;font-family:sans-serif;font-variant-ligatures:normal;font-variant-position:normal;font-variant-caps:normal;font-variant-numeric:normal;font-variant-alternates:normal;font-feature-settings:normal;text-indent:0;text-align:start;text-decoration:none;text-decoration-line:none;text-decoration-style:solid;text-decoration-color:#000000;letter-spacing:normal;word-spacing:normal;text-transform:none;writing-mode:lr-tb;direction:ltr;text-orientation:mixed;dominant-baseline:auto;baseline-shift:baseline;text-anchor:start;white-space:normal;shape-padding:0;clip-rule:nonzero;display:inline;overflow:visible;visibility:visible;opacity:1;isolation:auto;mix-blend-mode:normal;color-interpolation:sRGB;color-interpolation-filters:linearRGB;solid-color:#000000;solid-opacity:1;vector-effect:none;fill:#ffffff;fill-opacity:1;fill-rule:evenodd;stroke:none;stroke-width:3.99999952;stroke-linecap:round;stroke-linejoin:round;stroke-miterlimit:4;stroke-dasharray:none;stroke-dashoffset:0;stroke-opacity:1;color-rendering:auto;image-rendering:auto;shape-rendering:auto;text-rendering:auto;enable-background:accumulate" />
      <rect
         ry="4"
         y="956.36218"
         x="32"
         height="64"
         width="64"
         id="rect5672"
         style="opacity:1;fill:none;fill-opacity:1;fill-rule:evenodd;stroke:#ffffff;stroke-width:4;stroke-linecap:round;stroke-linejoin:round;stroke-miterlimit:4;stroke-dasharray:none;stroke-opacity:1" />
      <path
         inkscape:connector-curvature="0"
         id="path5674"
         d="M 32,980.3622 H 96"
         style="fill:none;fill-rule:evenodd;stroke:#ffffff;stroke-width:4;stroke-linecap:butt;stroke-linejoin:miter;stroke-miterlimit:4;stroke-dasharray:none;stroke-opacity:1" />
      <rect
         ry="4"
         y="972.36218"
         x="60"
         height="16"
         width="8"
         id="rect5676"
         style="opacity:1;fill:#ffffff;fill-opacity:1;fill-rule:evenodd;stroke:#ffffff;stroke-width:4;stroke-linecap:round;stroke-linejoin:round;stroke-miterlimit:4;stroke-dasharray:none;stroke-opacity:1" />
    </g>
    <path
       style="opacity:0.1;fill:url(#linearGradient5711);fill-opacity:1;fill-rule:evenodd;stroke:none;stroke-width:10;stroke-linecap:round;stroke-linejoin:round;stroke-miterlimit:4;stroke-dasharray:none;stroke-opacity:1"
       d="M 105.17188 22.828125 L 106.34375 24 L 114.34375 32 L 128 45.65625 L 128 32 A 8 8 0 0 0 127.95898 31.201172 A 8 8 0 0 0 126.24414 27.017578 C 124.72959 25.114948 122.43184 24.005 120 24 L 108 24 C 106.89543 24 105.89573 23.551983 105.17188 22.828125 z M 126.24414 27.017578 A 8 8 0 0 0 125.6543 26.345703 C 125.86328 26.558493 126.06016 26.782828 126.24414 27.017578 z "
       id="path5568"
       transform="translate(0,924.3622)" />
    <path
       style="fill:#000000;fill-rule:evenodd;stroke:none;stroke-width:1px;stroke-linecap:butt;stroke-linejoin:miter;stroke-opacity:1;fill-opacity:1;opacity:0.03"
       d="M 105.17188 22.828125 L 106.34375 24 L 128 45.65625 L 128 32 A 8 8 0 0 0 126.24414 27.017578 C 124.72959 25.114948 122.43184 24.005 120 24 L 108 24 C 106.89543 24 105.89573 23.551983 105.17188 22.828125 z M 126.24414 27.017578 A 8 8 0 0 0 125.6543 26.345703 C 125.86328 26.558493 126.06016 26.782828 126.24414 27.017578 z "
       id="path5390"
       transform="translate(0,924.3622)" />
    <path
       style="opacity:1;fill:url(#linearGradient5695);fill-opacity:1;fill-rule:evenodd;stroke:none;stroke-width:10;stroke-linecap:round;stroke-linejoin:round;stroke-miterlimit:4;stroke-dasharray:none;stroke-opacity:1"
       d="m 101.65621,926.70599 -0.002,0.002 c 1.50065,1.49925 2.3444,3.53309 2.34575,5.6543 l 1e-5,12.00001 c 0,2.20912 1.79086,3.99999 3.99999,3.99999 l 12,0 c 2.43184,0.005 4.7296,1.11495 6.24415,3.01758 -0.18398,-0.23475 -0.38087,-0.45908 -0.58985,-0.67187 l 0.002,-0.002 c -8.19955,-8.19936 -16.76192,-16.76181 -24.00004,-23.99996 z"
       id="rect5381"
       inkscape:connector-curvature="0"
       sodipodi:nodetypes="cccssccccc" />
  </g>
</svg>
