<?xml version="1.0" encoding="UTF-8" standalone="no"?>
<!-- Created with Inkscape (http://www.inkscape.org/) -->

<svg
   xmlns:dc="http://purl.org/dc/elements/1.1/"
   xmlns:cc="http://creativecommons.org/ns#"
   xmlns:rdf="http://www.w3.org/1999/02/22-rdf-syntax-ns#"
   xmlns:svg="http://www.w3.org/2000/svg"
   xmlns="http://www.w3.org/2000/svg"
   xmlns:xlink="http://www.w3.org/1999/xlink"
   xmlns:sodipodi="http://sodipodi.sourceforge.net/DTD/sodipodi-0.dtd"
   xmlns:inkscape="http://www.inkscape.org/namespaces/inkscape"
   width="512"
   height="128"
   viewBox="0 0 512 128"
   id="svg2"
   version="1.1"
   inkscape:version="0.92.1 unknown"
   sodipodi:docname="logo.svg"
   inkscape:export-filename="/home/william/Documents/git/furnace/logo.png"
   inkscape:export-xdpi="192"
   inkscape:export-ydpi="192">
  <sodipodi:namedview
     id="base"
     pagecolor="#ffffff"
     bordercolor="#666666"
     borderopacity="1.0"
     inkscape:pageopacity="0.0"
     inkscape:pageshadow="2"
     inkscape:zoom="1.9999999"
     inkscape:cx="132.25615"
     inkscape:cy="10.565805"
     inkscape:document-units="px"
     inkscape:current-layer="g4527"
     showgrid="false"
     units="px"
     width="512px"
     inkscape:window-width="2160"
     inkscape:window-height="1318"
     inkscape:window-x="0"
     inkscape:window-y="54"
     inkscape:window-maximized="1"
     inkscape:snap-bbox="false"
     inkscape:bbox-nodes="true"
     inkscape:bbox-paths="true"
     inkscape:snap-bbox-midpoints="true"
     inkscape:object-nodes="true"
     inkscape:object-paths="true"
     inkscape:snap-smooth-nodes="true"
     inkscape:snap-nodes="true"
     inkscape:snap-grids="true"
     inkscape:snap-object-midpoints="false"
     showguides="false"
     inkscape:snap-intersection-paths="true">
    <inkscape:grid
       type="xygrid"
       id="grid3338"
       empspacing="8" />
  </sodipodi:namedview>
  <defs
     id="defs4">
    <linearGradient
       inkscape:collect="always"
       id="linearGradient5661">
      <stop
         style="stop-color:#000000;stop-opacity:1;"
         offset="0"
         id="stop5657" />
      <stop
         style="stop-color:#000000;stop-opacity:0;"
         offset="1"
         id="stop5659" />
    </linearGradient>
    <linearGradient
       id="linearGradient5402"
       inkscape:collect="always">
      <stop
         id="stop5398"
         offset="0"
         style="stop-color:#880e4f;stop-opacity:1" />
      <stop
         id="stop5400"
         offset="1"
         style="stop-color:#e53935;stop-opacity:1" />
    </linearGradient>
    <inkscape:perspective
       id="perspective4904"
       inkscape:persp3d-origin="64 : 42.666667 : 1"
       inkscape:vp_z="128 : 64 : 1"
       inkscape:vp_y="0 : 1000 : 0"
       inkscape:vp_x="-184 : 40 : 1"
       sodipodi:type="inkscape:persp3d" />
    <linearGradient
       gradientUnits="userSpaceOnUse"
       y2="24"
       x2="104"
       y1="0"
       x1="128"
       id="linearGradient5404"
       xlink:href="#linearGradient5402"
       inkscape:collect="always" />
    <linearGradient
       inkscape:collect="always"
       xlink:href="#linearGradient5402"
       id="linearGradient5617"
       gradientUnits="userSpaceOnUse"
       x1="128"
       y1="0"
       x2="104"
       y2="24" />
    <linearGradient
       inkscape:collect="always"
       xlink:href="#linearGradient5661"
       id="linearGradient5663"
       x1="104"
       y1="24"
       x2="104"
       y2="27"
       gradientUnits="userSpaceOnUse" />
    <linearGradient
       inkscape:collect="always"
       xlink:href="#linearGradient5661"
       id="linearGradient5668"
       gradientUnits="userSpaceOnUse"
       x1="104"
       y1="24"
       x2="104"
       y2="32" />
    <linearGradient
       inkscape:collect="always"
       xlink:href="#linearGradient5402"
       id="linearGradient5684"
       gradientUnits="userSpaceOnUse"
       x1="128"
       y1="0"
       x2="104"
       y2="24" />
    <linearGradient
       inkscape:collect="always"
       xlink:href="#linearGradient5661"
       id="linearGradient5704"
       gradientUnits="userSpaceOnUse"
       x1="104"
       y1="24"
       x2="104"
       y2="32" />
    <linearGradient
       inkscape:collect="always"
       xlink:href="#linearGradient5661"
       id="linearGradient4875"
       x1="64"
       y1="58"
       x2="64"
       y2="66"
       gradientUnits="userSpaceOnUse" />
    <linearGradient
       inkscape:collect="always"
       xlink:href="#linearGradient5661"
       id="linearGradient4882"
       gradientUnits="userSpaceOnUse"
       x1="64"
       y1="58"
       x2="64"
       y2="74" />
    <linearGradient
       inkscape:collect="always"
       xlink:href="#linearGradient5661"
       id="linearGradient4527"
       x1="104"
       y1="940.36218"
       x2="104"
       y2="956.36218"
       gradientUnits="userSpaceOnUse"
       gradientTransform="translate(0,-924.3622)" />
    <linearGradient
       inkscape:collect="always"
       xlink:href="#linearGradient5661"
       id="linearGradient4794"
       gradientUnits="userSpaceOnUse"
       gradientTransform="translate(0,-924.3622)"
       x1="104"
       y1="940.36218"
       x2="104"
       y2="956.36218" />
  </defs>
  <metadata
     id="metadata7">
    <rdf:RDF>
      <cc:Work
         rdf:about="">
        <dc:format>image/svg+xml</dc:format>
        <dc:type
           rdf:resource="http://purl.org/dc/dcmitype/StillImage" />
        <dc:title />
      </cc:Work>
    </rdf:RDF>
  </metadata>
  <g
     inkscape:label="Layer 1"
     inkscape:groupmode="layer"
     id="layer1"
     transform="translate(0,-924.3622)">
    <g
       id="g4527">
      <text
         xml:space="preserve"
         style="font-style:normal;font-weight:normal;font-size:40px;line-height:125%;font-family:sans-serif;letter-spacing:0px;word-spacing:0px;fill:#000000;fill-opacity:1;stroke:none;stroke-width:1px;stroke-linecap:butt;stroke-linejoin:miter;stroke-opacity:1"
         x="316.97198"
         y="1022.0409"
         id="text4525"><tspan
           sodipodi:role="line"
           id="tspan4523"
           x="316.97198"
           y="1022.0409"
           style="font-style:normal;font-variant:normal;font-weight:normal;font-stretch:normal;font-size:96px;font-family:Ubuntu;-inkscape-font-specification:Ubuntu;text-align:center;writing-mode:lr-tb;text-anchor:middle">Furnace</tspan></text>
      <g
         transform="matrix(2.7234043,0,0,2.7234043,-2.7234043,921.63879)"
         id="g4581"
         style="stroke-width:0.3671875">
        <path
           inkscape:connector-curvature="0"
           id="path9"
           style="opacity:0.05;stroke-width:0.3671875"
           d="m 36.31,5 c 5.859,4.062 9.688,10.831 9.688,18.5 0,12.426 -10.07,22.5 -22.5,22.5 -7.669,0 -14.438,-3.828 -18.5,-9.688 1.037,1.822 2.306,3.499 3.781,4.969 4.085,3.712 9.514,5.969 15.469,5.969 12.703,0 23,-10.298 23,-23 0,-5.954 -2.256,-11.384 -5.969,-15.469 C 39.81,7.306 38.132,6.037 36.31,5 Z m 4.969,3.781 c 3.854,4.113 6.219,9.637 6.219,15.719 0,12.703 -10.297,23 -23,23 -6.081,0 -11.606,-2.364 -15.719,-6.219 4.16,4.144 9.883,6.719 16.219,6.719 12.703,0 23,-10.298 23,-23 0,-6.335 -2.575,-12.06 -6.719,-16.219 z" />
        <path
           inkscape:connector-curvature="0"
           id="path11"
           style="opacity:0.1;stroke-width:0.3671875"
           d="m 41.28,8.781 c 3.712,4.085 5.969,9.514 5.969,15.469 0,12.703 -10.297,23 -23,23 -5.954,0 -11.384,-2.256 -15.469,-5.969 4.113,3.854 9.637,6.219 15.719,6.219 12.703,0 23,-10.298 23,-23 0,-6.081 -2.364,-11.606 -6.219,-15.719 z" />
        <path
           inkscape:connector-curvature="0"
           id="path13"
           style="opacity:0.2;stroke-width:0.3671875"
           d="M 31.25,2.375 C 39.865,5.529 46,13.792 46,23.505 c 0,12.426 -10.07,22.5 -22.5,22.5 -9.708,0 -17.971,-6.135 -21.12,-14.75 a 23,23 0 0 0 44.875,-7 23,23 0 0 0 -16,-21.875 z" />
        <g
           id="g17"
           style="fill:#6f6f91;stroke-width:0.3671875"
           transform="rotate(-90,24,24)">
          <path
             inkscape:connector-curvature="0"
             id="path15"
             style="fill:#6f6f91;stroke-width:0.3671875"
             d="M 24,1 C 36.703,1 47,11.297 47,24 47,36.703 36.703,47 24,47 11.297,47 1,36.703 1,24 1,11.297 11.297,1 24,1 Z" />
        </g>
        <path
           inkscape:connector-curvature="0"
           id="path19"
           style="opacity:0.1;stroke-width:0.3671875"
           d="m 40.03,7.531 c 3.712,4.084 5.969,9.514 5.969,15.469 0,12.703 -10.297,23 -23,23 C 17.045,46 11.615,43.744 7.53,40.031 11.708,44.322 17.54,47 23.999,47 c 12.703,0 23,-10.298 23,-23 0,-6.462 -2.677,-12.291 -6.969,-16.469 z" />
        <path
           id="path4532"
           d="m 23.998952,26.32864 c -2.470723,0 -4.715554,0.6601 -6.376214,1.767206 -1.660661,1.107106 -2.757848,2.699466 -2.757849,4.49987 a 0.53735153,0.53735153 0 0 0 0.537298,0.537297 h 17.193529 a 0.53735153,0.53735153 0 0 0 0.537298,-0.537297 c -2e-6,-1.800404 -1.095089,-3.392764 -2.755751,-4.49987 -1.660658,-1.107106 -3.907589,-1.767205 -6.378311,-1.767206 z"
           style="opacity:1;fill:#333333;fill-opacity:1;fill-rule:evenodd;stroke:none;stroke-width:0.3671875;stroke-linecap:round;stroke-linejoin:round;stroke-miterlimit:4;stroke-dasharray:none;stroke-opacity:1"
           inkscape:connector-curvature="0" />
        <path
           id="path4532-3"
           d="m 23.998952,17.731875 c -1.655215,0 -3.15717,0.328738 -4.292087,0.896196 -1.134917,0.567459 -1.974988,1.424303 -1.974989,2.505991 a 0.53735153,0.53735153 0 0 0 0.537298,0.537297 h 11.461653 a 0.53735153,0.53735153 0 0 0 0.537298,-0.537297 c -1e-6,-1.081688 -0.840072,-1.938532 -1.974989,-2.505991 -1.134916,-0.567458 -2.638971,-0.896196 -4.294184,-0.896196 z"
           style="opacity:1;fill:#808080;fill-opacity:1;fill-rule:evenodd;stroke:none;stroke-width:0.3671875;stroke-linecap:round;stroke-linejoin:round;stroke-miterlimit:4;stroke-dasharray:none;stroke-opacity:1"
           inkscape:connector-curvature="0" />
        <path
           inkscape:connector-curvature="0"
           style="color:#000000;font-style:normal;font-variant:normal;font-weight:normal;font-stretch:normal;font-size:medium;line-height:normal;font-family:sans-serif;font-variant-ligatures:normal;font-variant-position:normal;font-variant-caps:normal;font-variant-numeric:normal;font-variant-alternates:normal;font-feature-settings:normal;text-indent:0;text-align:start;text-decoration:none;text-decoration-line:none;text-decoration-style:solid;text-decoration-color:#000000;letter-spacing:normal;word-spacing:normal;text-transform:none;writing-mode:lr-tb;direction:ltr;text-orientation:mixed;dominant-baseline:auto;baseline-shift:baseline;text-anchor:start;white-space:normal;shape-padding:0;clip-rule:nonzero;display:inline;overflow:visible;visibility:visible;opacity:0.1;isolation:auto;mix-blend-mode:normal;color-interpolation:sRGB;color-interpolation-filters:linearRGB;solid-color:#000000;solid-opacity:1;vector-effect:none;fill:#000000;fill-opacity:1;fill-rule:evenodd;stroke:none;stroke-width:0.3671875;stroke-linecap:round;stroke-linejoin:round;stroke-miterlimit:4;stroke-dasharray:none;stroke-dashoffset:0;stroke-opacity:1;color-rendering:auto;image-rendering:auto;shape-rendering:auto;text-rendering:auto;enable-background:accumulate"
           d="M 14.970791,12.999999 C 13.888654,12.999999 13,13.888653 13,14.97079 V 35.029209 C 13,36.111346 13.888654,37 14.970791,37 H 35.02921 c 1.082137,0 1.970791,-0.888654 1.970791,-1.970791 V 14.97079 c 0,-1.082137 -0.888654,-1.970791 -1.970791,-1.970791 z m 10.028161,5.731876 c 1.655213,0 3.159268,0.328738 4.294184,0.896196 1.134917,0.567459 1.974988,1.424303 1.974989,2.505991 a 0.53735153,0.53735153 0 0 1 -0.537298,0.537297 H 19.269174 a 0.53735153,0.53735153 0 0 1 -0.537298,-0.537297 c 1e-6,-1.081688 0.840072,-1.938532 1.974989,-2.505991 1.134917,-0.567458 2.636872,-0.896196 4.292087,-0.896196 z m 0,8.596765 c 2.470722,1e-6 4.717654,0.6601 6.378311,1.767206 1.660663,1.107106 2.755749,2.699466 2.755751,4.49987 a 0.53735153,0.53735153 0 0 1 -0.537298,0.537297 H 16.402187 a 0.53735153,0.53735153 0 0 1 -0.537298,-0.537297 c 1e-6,-1.800404 1.097188,-3.392764 2.757849,-4.49987 1.66066,-1.107106 3.905491,-1.767206 6.376214,-1.767206 z"
           id="path4553" />
        <path
           id="rect5672"
           d="M 13.970791,11.999999 C 12.888654,11.999999 12,12.888653 12,13.97079 V 34.029209 C 12,35.111346 12.888654,36 13.970791,36 H 34.02921 c 1.082137,0 1.970791,-0.888654 1.970791,-1.970791 V 13.97079 c 0,-1.082137 -0.888654,-1.970791 -1.970791,-1.970791 z m 10.028161,5.731876 c 1.655213,0 3.159268,0.328738 4.294184,0.896196 1.134917,0.567459 1.974988,1.424303 1.974989,2.505991 a 0.53735153,0.53735153 0 0 1 -0.537298,0.537297 H 18.269174 a 0.53735153,0.53735153 0 0 1 -0.537298,-0.537297 c 1e-6,-1.081688 0.840072,-1.938532 1.974989,-2.505991 1.134917,-0.567458 2.636872,-0.896196 4.292087,-0.896196 z m 0,8.596765 c 2.470722,1e-6 4.717654,0.6601 6.378311,1.767206 1.660663,1.107106 2.755749,2.699466 2.755751,4.49987 a 0.53735153,0.53735153 0 0 1 -0.537298,0.537297 H 15.402187 a 0.53735153,0.53735153 0 0 1 -0.537298,-0.537297 c 1e-6,-1.800404 1.097188,-3.392764 2.757849,-4.49987 1.66066,-1.107106 3.905491,-1.767206 6.376214,-1.767206 z"
           style="color:#000000;font-style:normal;font-variant:normal;font-weight:normal;font-stretch:normal;font-size:medium;line-height:normal;font-family:sans-serif;font-variant-ligatures:normal;font-variant-position:normal;font-variant-caps:normal;font-variant-numeric:normal;font-variant-alternates:normal;font-feature-settings:normal;text-indent:0;text-align:start;text-decoration:none;text-decoration-line:none;text-decoration-style:solid;text-decoration-color:#000000;letter-spacing:normal;word-spacing:normal;text-transform:none;writing-mode:lr-tb;direction:ltr;text-orientation:mixed;dominant-baseline:auto;baseline-shift:baseline;text-anchor:start;white-space:normal;shape-padding:0;clip-rule:nonzero;display:inline;overflow:visible;visibility:visible;opacity:1;isolation:auto;mix-blend-mode:normal;color-interpolation:sRGB;color-interpolation-filters:linearRGB;solid-color:#000000;solid-opacity:1;vector-effect:none;fill:#b3b3b3;fill-opacity:1;fill-rule:evenodd;stroke:none;stroke-width:0.3671875;stroke-linecap:round;stroke-linejoin:round;stroke-miterlimit:4;stroke-dasharray:none;stroke-dashoffset:0;stroke-opacity:1;color-rendering:auto;image-rendering:auto;shape-rendering:auto;text-rendering:auto;enable-background:accumulate"
           inkscape:connector-curvature="0" />
      </g>
    </g>
  </g>
</svg>
