<?xml version="1.0" encoding="UTF-8" standalone="no"?>
<!-- Created with Inkscape (http://www.inkscape.org/) -->

<svg
   xmlns:dc="http://purl.org/dc/elements/1.1/"
   xmlns:cc="http://creativecommons.org/ns#"
   xmlns:rdf="http://www.w3.org/1999/02/22-rdf-syntax-ns#"
   xmlns:svg="http://www.w3.org/2000/svg"
   xmlns="http://www.w3.org/2000/svg"
   xmlns:xlink="http://www.w3.org/1999/xlink"
   xmlns:sodipodi="http://sodipodi.sourceforge.net/DTD/sodipodi-0.dtd"
   xmlns:inkscape="http://www.inkscape.org/namespaces/inkscape"
   width="128"
   height="128"
   viewBox="0 0 128 128"
   id="svg2"
   version="1.1"
   inkscape:version="0.92.0 r"
   sodipodi:docname="logo.svg"
   inkscape:export-filename="/home/william/Documents/git/Original/smelt/logo.png"
   inkscape:export-xdpi="192"
   inkscape:export-ydpi="192">
  <sodipodi:namedview
     id="base"
     pagecolor="#ffffff"
     bordercolor="#666666"
     borderopacity="1.0"
     inkscape:pageopacity="0.0"
     inkscape:pageshadow="2"
     inkscape:zoom="11.313708"
     inkscape:cx="53.736221"
     inkscape:cy="72.3939"
     inkscape:document-units="px"
     inkscape:current-layer="g4527"
     showgrid="false"
     units="px"
     width="512px"
     inkscape:window-width="3840"
     inkscape:window-height="2018"
     inkscape:window-x="0"
     inkscape:window-y="86"
     inkscape:window-maximized="1"
     inkscape:snap-bbox="false"
     inkscape:bbox-nodes="true"
     inkscape:bbox-paths="true"
     inkscape:snap-bbox-midpoints="true"
     inkscape:object-nodes="true"
     inkscape:object-paths="true"
     inkscape:snap-smooth-nodes="true"
     inkscape:snap-nodes="true"
     inkscape:snap-grids="true"
     inkscape:snap-object-midpoints="false"
     showguides="false"
     inkscape:snap-intersection-paths="true">
    <inkscape:grid
       type="xygrid"
       id="grid3338"
       empspacing="8" />
  </sodipodi:namedview>
  <defs
     id="defs4">
    <linearGradient
       inkscape:collect="always"
       id="linearGradient5772">
      <stop
         style="stop-color:#000000;stop-opacity:0.55334985"
         offset="0"
         id="stop5768" />
      <stop
         style="stop-color:#000000;stop-opacity:0.05210918"
         offset="1"
         id="stop5770" />
    </linearGradient>
    <linearGradient
       inkscape:collect="always"
       id="linearGradient5661">
      <stop
         style="stop-color:#000000;stop-opacity:1;"
         offset="0"
         id="stop5657" />
      <stop
         style="stop-color:#000000;stop-opacity:0;"
         offset="1"
         id="stop5659" />
    </linearGradient>
    <linearGradient
       id="linearGradient5402"
       inkscape:collect="always">
      <stop
         id="stop5398"
         offset="0"
         style="stop-color:#880e4f;stop-opacity:1" />
      <stop
         id="stop5400"
         offset="1"
         style="stop-color:#e53935;stop-opacity:1" />
    </linearGradient>
    <inkscape:perspective
       id="perspective4904"
       inkscape:persp3d-origin="64 : 42.666667 : 1"
       inkscape:vp_z="128 : 64 : 1"
       inkscape:vp_y="0 : 1000 : 0"
       inkscape:vp_x="-184 : 40 : 1"
       sodipodi:type="inkscape:persp3d" />
    <linearGradient
       gradientUnits="userSpaceOnUse"
       y2="24"
       x2="104"
       y1="0"
       x1="128"
       id="linearGradient5404"
       xlink:href="#linearGradient5402"
       inkscape:collect="always" />
    <linearGradient
       inkscape:collect="always"
       xlink:href="#linearGradient5402"
       id="linearGradient5617"
       gradientUnits="userSpaceOnUse"
       x1="128"
       y1="0"
       x2="104"
       y2="24" />
    <linearGradient
       inkscape:collect="always"
       xlink:href="#linearGradient5661"
       id="linearGradient5663"
       x1="104"
       y1="24"
       x2="104"
       y2="27"
       gradientUnits="userSpaceOnUse" />
    <linearGradient
       inkscape:collect="always"
       xlink:href="#linearGradient5661"
       id="linearGradient5668"
       gradientUnits="userSpaceOnUse"
       x1="104"
       y1="24"
       x2="104"
       y2="32" />
    <linearGradient
       inkscape:collect="always"
       xlink:href="#linearGradient5402"
       id="linearGradient5684"
       gradientUnits="userSpaceOnUse"
       x1="128"
       y1="0"
       x2="104"
       y2="24" />
    <linearGradient
       inkscape:collect="always"
       xlink:href="#linearGradient5772"
       id="linearGradient5695"
       gradientUnits="userSpaceOnUse"
       x1="128.00005"
       y1="-3.9999999e-05"
       x2="104"
       y2="24"
       gradientTransform="translate(-8.88007e-5,924.36228)" />
    <linearGradient
       inkscape:collect="always"
       xlink:href="#linearGradient5661"
       id="linearGradient5704"
       gradientUnits="userSpaceOnUse"
       x1="104"
       y1="24"
       x2="104"
       y2="32" />
    <linearGradient
       inkscape:collect="always"
       xlink:href="#linearGradient5661"
       id="linearGradient4875"
       x1="64"
       y1="58"
       x2="64"
       y2="66"
       gradientUnits="userSpaceOnUse" />
    <linearGradient
       inkscape:collect="always"
       xlink:href="#linearGradient5661"
       id="linearGradient4882"
       gradientUnits="userSpaceOnUse"
       x1="64"
       y1="58"
       x2="64"
       y2="74" />
    <linearGradient
       inkscape:collect="always"
       xlink:href="#linearGradient5661"
       id="linearGradient4922"
       gradientUnits="userSpaceOnUse"
       x1="64"
       y1="58"
       x2="64"
       y2="74" />
    <linearGradient
       gradientUnits="userSpaceOnUse"
       y2="106"
       x2="56"
       y1="90"
       x1="56"
       id="linearGradient5074"
       xlink:href="#linearGradient5661"
       inkscape:collect="always" />
    <linearGradient
       gradientUnits="userSpaceOnUse"
       y2="128"
       x2="64"
       y1="64"
       x1="64"
       id="linearGradient5126"
       xlink:href="#linearGradient5661"
       inkscape:collect="always" />
    <linearGradient
       inkscape:collect="always"
       xlink:href="#linearGradient5661"
       id="linearGradient5306"
       x1="80"
       y1="98"
       x2="80"
       y2="114"
       gradientUnits="userSpaceOnUse" />
    <linearGradient
       inkscape:collect="always"
       xlink:href="#linearGradient5661"
       id="linearGradient4527"
       x1="104"
       y1="940.36218"
       x2="104"
       y2="956.36218"
       gradientUnits="userSpaceOnUse"
       gradientTransform="translate(0,-924.3622)" />
    <linearGradient
       inkscape:collect="always"
       xlink:href="#linearGradient5661"
       id="linearGradient4794"
       gradientUnits="userSpaceOnUse"
       gradientTransform="translate(0,-924.3622)"
       x1="104"
       y1="940.36218"
       x2="104"
       y2="956.36218" />
    <linearGradient
       inkscape:collect="always"
       xlink:href="#linearGradient5661"
       id="linearGradient4797"
       gradientUnits="userSpaceOnUse"
       gradientTransform="translate(0,-924.3622)"
       x1="104"
       y1="940.36218"
       x2="104"
       y2="956.36218" />
  </defs>
  <metadata
     id="metadata7">
    <rdf:RDF>
      <cc:Work
         rdf:about="">
        <dc:format>image/svg+xml</dc:format>
        <dc:type
           rdf:resource="http://purl.org/dc/dcmitype/StillImage" />
        <dc:title />
      </cc:Work>
    </rdf:RDF>
  </metadata>
  <g
     inkscape:label="Layer 1"
     inkscape:groupmode="layer"
     id="layer1"
     transform="translate(0,-924.3622)">
    <g
       id="g4527">
      <path
         style="opacity:1;fill:#b73c69;fill-opacity:1;fill-rule:evenodd;stroke:none;stroke-width:10;stroke-linecap:round;stroke-linejoin:round;stroke-miterlimit:4;stroke-dasharray:none;stroke-opacity:1"
         d="M 64 0 A 64 64 0 0 0 0 64 A 64 64 0 0 0 64 128 A 64 64 0 0 0 128 64 L 128 32 A 8 8 0 0 0 125.6543 26.345703 L 125.65625 26.34375 L 123.3125 24 L 104 4.6875 L 101.73828 2.4257812 L 101.65625 2.34375 L 101.6543 2.3457031 A 8 8 0 0 0 96 0 L 64 0 z "
         id="path5225"
         transform="translate(0,924.3622)" />
      <path
         style="opacity:0.03;fill:url(#linearGradient5126);fill-opacity:1;fill-rule:nonzero;stroke:none;stroke-width:4;stroke-linecap:round;stroke-linejoin:round;stroke-miterlimit:4;stroke-dasharray:none;stroke-opacity:1"
         d="M 64 4 C 30.862916 4.0000022 4.0000022 30.862916 4 64 C 4.014316 79.911816 10.34853 95.166353 21.609375 106.4082 L 21.582031 106.41797 L 37.199219 122.03516 A 64 64 0 0 0 64 128 A 64 64 0 0 0 75.984375 126.8125 L 76.003906 126.83203 A 64 64 0 0 0 76.25 126.77148 A 64 64 0 0 0 80.044922 125.84375 A 64 64 0 0 0 82.505859 125.21094 A 64 64 0 0 0 85.771484 124.05664 A 64 64 0 0 0 88.574219 123.02734 A 64 64 0 0 0 91.255859 121.76562 A 64 64 0 0 0 94.402344 120.23828 A 64 64 0 0 0 96.5625 118.94336 A 64 64 0 0 0 99.898438 116.89062 A 64 64 0 0 0 103.46484 114.29297 A 64 64 0 0 0 103.47656 114.2832 A 64 64 0 0 0 103.92188 113.89648 A 64 64 0 0 0 106.58203 111.5918 A 64 64 0 0 0 108.08008 110.29492 A 64 64 0 0 0 108.41406 109.98242 A 64 64 0 0 0 108.8457 109.52539 A 64 64 0 0 0 111.57812 106.63477 A 64 64 0 0 0 112.29883 105.87109 A 64 64 0 0 0 112.87109 105.21875 A 64 64 0 0 0 112.87891 105.21094 A 64 64 0 0 0 112.89062 105.19727 A 64 64 0 0 0 116.07617 101.06641 A 64 64 0 0 0 116.85547 99.976562 A 64 64 0 0 0 119.37109 95.933594 A 64 64 0 0 0 120.52734 93.917969 A 64 64 0 0 0 121.25781 92.533203 A 64 64 0 0 0 128 64 L 128 45.65625 L 128 43.148438 L 128 32 A 8 8 0 0 0 127.95898 31.201172 A 8 8 0 0 0 126.24414 27.017578 C 124.72959 25.114948 122.43184 24.005 120 24 L 108.85156 24 L 108 24 C 107.72386 24 107.45375 23.971253 107.19336 23.917969 C 106.41227 23.758033 105.71476 23.371019 105.17188 22.828125 C 104.44802 22.104265 104 21.10456 104 20 L 104 19.335938 C 93.035544 9.5030702 78.804615 4.0128388 64 4 z M 126.24414 27.017578 A 8 8 0 0 0 125.6543 26.345703 C 125.86328 26.558493 126.06016 26.782828 126.24414 27.017578 z "
         transform="translate(0,924.3622)"
         id="path5118" />
      <g
         style="opacity:0.35"
         id="g5766">
        <path
           style="opacity:1;fill:#ffffff;fill-opacity:0.25558316;fill-rule:evenodd;stroke:#ffffff;stroke-width:4;stroke-linecap:round;stroke-linejoin:round;stroke-miterlimit:4;stroke-dasharray:none;stroke-opacity:1"
           d="M 64,996.36221 A 24,16 0 0 0 40,1012.3622 H 88 A 24,16 0 0 0 64,996.36221 Z"
           id="path4532"
           inkscape:connector-curvature="0" />
        <path
           transform="translate(0,924.3622)"
           style="color:#000000;font-style:normal;font-variant:normal;font-weight:normal;font-stretch:normal;font-size:medium;line-height:normal;font-family:sans-serif;font-variant-ligatures:normal;font-variant-position:normal;font-variant-caps:normal;font-variant-numeric:normal;font-variant-alternates:normal;font-feature-settings:normal;text-indent:0;text-align:start;text-decoration:none;text-decoration-line:none;text-decoration-style:solid;text-decoration-color:#000000;letter-spacing:normal;word-spacing:normal;text-transform:none;writing-mode:lr-tb;direction:ltr;text-orientation:mixed;dominant-baseline:auto;baseline-shift:baseline;text-anchor:start;white-space:normal;shape-padding:0;clip-rule:nonzero;display:inline;overflow:visible;visibility:visible;opacity:1;isolation:auto;mix-blend-mode:normal;color-interpolation:sRGB;color-interpolation-filters:linearRGB;solid-color:#000000;solid-opacity:1;vector-effect:none;fill:#ffffff;fill-opacity:1;fill-rule:evenodd;stroke:none;stroke-width:3.99999952;stroke-linecap:round;stroke-linejoin:round;stroke-miterlimit:4;stroke-dasharray:none;stroke-dashoffset:0;stroke-opacity:1;color-rendering:auto;image-rendering:auto;shape-rendering:auto;text-rendering:auto;enable-background:accumulate"
           d="M 64 4 C 30.886604 4 4 30.8866 4 64 C 4 97.1134 30.886604 124 64 124 C 97.113396 124 124 97.1134 124 64 C 124 48.636725 118.20517 34.619215 108.69336 24 L 108 24 C 105.79087 24 104 22.20912 104 20 L 104 19.306641 C 93.380784 9.7948268 79.363273 4 64 4 z M 64 8 C 94.951635 8 120 33.04837 120 64 C 120 94.9516 94.951635 120 64 120 C 33.048365 120 8 94.9516 8 64 C 8 33.04837 33.048365 8 64 8 z "
           id="path5670" />
        <rect
           style="opacity:1;fill:none;fill-opacity:1;fill-rule:evenodd;stroke:#ffffff;stroke-width:4;stroke-linecap:round;stroke-linejoin:round;stroke-miterlimit:4;stroke-dasharray:none;stroke-opacity:1"
           id="rect5672"
           width="64"
           height="64"
           x="32"
           y="956.36218"
           ry="4" />
        <path
           style="opacity:1;fill:#010101;fill-opacity:0.25558316;fill-rule:evenodd;stroke:#ffffff;stroke-width:3.99999976;stroke-linecap:round;stroke-linejoin:round;stroke-miterlimit:4;stroke-dasharray:none;stroke-opacity:1"
           d="m 64,972.3622 a 16,8.000005 0 0 0 -16,8 h 32 a 16,8.000005 0 0 0 -16,-8 z"
           id="path4532-3"
           inkscape:connector-curvature="0" />
      </g>
      <path
         style="color:#000000;font-style:normal;font-variant:normal;font-weight:normal;font-stretch:normal;font-size:medium;line-height:normal;font-family:sans-serif;font-variant-ligatures:normal;font-variant-position:normal;font-variant-caps:normal;font-variant-numeric:normal;font-variant-alternates:normal;font-feature-settings:normal;text-indent:0;text-align:start;text-decoration:none;text-decoration-line:none;text-decoration-style:solid;text-decoration-color:#000000;letter-spacing:normal;word-spacing:normal;text-transform:none;writing-mode:lr-tb;direction:ltr;text-orientation:mixed;dominant-baseline:auto;baseline-shift:baseline;text-anchor:start;white-space:normal;shape-padding:0;clip-rule:nonzero;visibility:visible;isolation:auto;mix-blend-mode:normal;color-interpolation:sRGB;color-interpolation-filters:linearRGB;solid-color:#000000;solid-opacity:1;fill:#000000;fill-opacity:1;fill-rule:evenodd;stroke:none;stroke-width:4;stroke-linecap:round;stroke-linejoin:round;stroke-miterlimit:4;stroke-dasharray:none;stroke-dashoffset:0;stroke-opacity:1;color-rendering:auto;image-rendering:auto;shape-rendering:auto;text-rendering:auto;opacity:0.01"
         d="M 64 4 C 30.862916 4.0000022 4.0000022 30.862916 4 64 C 4.014316 79.911816 10.34853 95.16635 21.609375 106.4082 L 21.582031 106.41797 L 37.199219 122.03516 A 64 64 0 0 0 64 128 A 64 64 0 0 0 128 64 L 128 63.53125 L 128 45.65625 L 128 43.148438 L 128 32 A 8 8 0 0 0 126.24414 27.017578 C 124.72959 25.114948 122.43184 24.005 120 24 L 108.85156 24 L 108 24 C 107.72386 24 107.45372 23.971281 107.19336 23.917969 C 106.41219 23.758117 105.71476 23.37102 105.17188 22.828125 C 104.44801 22.104265 104 21.10456 104 20 L 104 19.335938 C 93.035544 9.5030707 78.804615 4.0128388 64 4 z M 126.24414 27.017578 A 8 8 0 0 0 125.6543 26.345703 C 125.86328 26.558493 126.06016 26.782828 126.24414 27.017578 z "
         transform="translate(0,924.3622)"
         id="path5191" />
      <path
         style="color:#000000;font-style:normal;font-variant:normal;font-weight:normal;font-stretch:normal;font-size:medium;line-height:normal;font-family:sans-serif;font-variant-ligatures:normal;font-variant-position:normal;font-variant-caps:normal;font-variant-numeric:normal;font-variant-alternates:normal;font-feature-settings:normal;text-indent:0;text-align:start;text-decoration:none;text-decoration-line:none;text-decoration-style:solid;text-decoration-color:#000000;letter-spacing:normal;word-spacing:normal;text-transform:none;writing-mode:lr-tb;direction:ltr;text-orientation:mixed;dominant-baseline:auto;baseline-shift:baseline;text-anchor:start;white-space:normal;shape-padding:0;clip-rule:nonzero;visibility:visible;isolation:auto;mix-blend-mode:normal;color-interpolation:sRGB;color-interpolation-filters:linearRGB;solid-color:#000000;solid-opacity:1;fill:url(#linearGradient5306);fill-opacity:1;fill-rule:evenodd;stroke:none;stroke-width:4;stroke-linecap:round;stroke-linejoin:round;stroke-miterlimit:4;stroke-dasharray:none;stroke-dashoffset:0;stroke-opacity:1;color-rendering:auto;image-rendering:auto;shape-rendering:auto;text-rendering:auto;opacity:0.03"
         d="M 36 30 C 32.710594 30 30 32.71059 30 36 L 30 92 C 30 93.6447 30.6768 95.145575 31.765625 96.234375 L 63.515625 127.98242 A 64 64 0 0 0 64 128 A 64 64 0 0 0 128 64 L 128 63.53125 L 96.234375 31.765625 C 95.145551 30.676805 93.644704 30 92 30 L 36 30 z "
         id="path5298"
         transform="translate(0,924.3622)" />
      <path
         id="path5066"
         transform="translate(0,924.3622)"
         d="M 64 70 C 57.01229 70 50.653734 71.867557 45.919922 75.023438 C 41.18611 78.179298 38 82.7711 38 88 A 2.0002 2.0002 0 0 0 38.587891 89.414062 A 2.0002 2.0002 0 0 0 38.607422 89.435547 L 76.003906 126.83203 A 64 64 0 0 0 112.87891 105.21094 L 85.375 77.707031 C 85.365605 77.697637 85.355121 77.689066 85.345703 77.679688 C 85.219055 77.553555 85.085922 77.432022 84.955078 77.308594 C 84.83105 77.191595 84.709727 77.073505 84.582031 76.958984 C 84.501958 76.887173 84.417421 76.818868 84.335938 76.748047 C 84.152866 76.588929 83.971239 76.429412 83.78125 76.275391 C 83.779443 76.273926 83.777198 76.272949 83.775391 76.271484 C 83.23629 75.834732 82.670512 75.417046 82.080078 75.023438 C 77.346266 71.867558 70.98771 70 64 70 z "
         style="fill:url(#linearGradient5074);fill-opacity:1;fill-rule:evenodd;stroke:none;stroke-width:4;stroke-linecap:round;stroke-linejoin:round;stroke-miterlimit:4;stroke-dasharray:none;stroke-opacity:1;opacity:0.03" />
      <path
         sodipodi:nodetypes="cccssccccc"
         inkscape:connector-curvature="0"
         id="rect5381"
         d="m 101.65617,926.70603 -0.002,0.002 c 1.50065,1.49925 2.3444,3.53309 2.34575,5.6543 l 0,12.00001 c 1e-5,2.20912 1.79086,3.99999 3.99999,3.99999 l 12.00001,0 c 2.43184,0.005 4.7296,1.11495 6.24415,3.01758 -0.18398,-0.23475 -0.38088,-0.45908 -0.58985,-0.67187 l 0.002,-0.002 c -8.19955,-8.19936 -16.76192,-16.76181 -24.00004,-23.99996 z"
         style="opacity:1;fill:url(#linearGradient5695);fill-opacity:1;fill-rule:evenodd;stroke:none;stroke-width:10;stroke-linecap:round;stroke-linejoin:round;stroke-miterlimit:4;stroke-dasharray:none;stroke-opacity:1" />
      <path
         style="fill:url(#linearGradient4922);fill-opacity:1;fill-rule:evenodd;stroke:none;stroke-width:3.99999976;stroke-linecap:round;stroke-linejoin:round;stroke-miterlimit:4;stroke-dasharray:none;stroke-opacity:1;opacity:0.03"
         d="M 64 46 C 59.311504 46 55.050406 46.924985 51.791016 48.554688 C 48.531626 50.184376 46.000004 52.70998 46 56 A 2.0001999 2.0001999 0 0 0 46.587891 57.414062 A 2.0001999 2.0001999 0 0 0 46.607422 57.435547 L 103.46484 114.29297 A 64 64 0 0 0 121.25781 92.533203 L 79.751953 51.027344 C 79.699834 50.975224 79.639487 50.928242 79.585938 50.876953 C 79.4837 50.779067 79.376775 50.684689 79.269531 50.589844 C 79.07368 50.416574 78.871429 50.248967 78.660156 50.085938 C 78.55365 50.003751 78.447996 49.921357 78.337891 49.841797 C 78.115116 49.680819 77.884621 49.527087 77.648438 49.376953 C 77.526729 49.299579 77.408116 49.220953 77.283203 49.146484 C 76.935324 48.939103 76.578157 48.739273 76.208984 48.554688 C 72.949594 46.924988 68.688496 46 64 46 z "
         id="path4867"
         transform="translate(0,924.3622)" />
      <path
         style="opacity:0.2;fill:url(#linearGradient4797);fill-opacity:1;fill-rule:evenodd;stroke:none;stroke-width:4;stroke-linecap:round;stroke-linejoin:round;stroke-miterlimit:4;stroke-dasharray:none;stroke-opacity:1"
         d="M 105.17188 22.828125 L 112.94922 30.607422 L 116.48438 34.142578 L 128 45.658203 L 128 32 A 8 8 0 0 0 126.24414 27.017578 C 124.72959 25.114948 122.43184 24.005 120 24 L 108 24 C 106.89543 24 105.89573 23.551985 105.17188 22.828125 z M 126.24414 27.017578 A 8 8 0 0 0 125.6543 26.345703 C 125.86328 26.558493 126.06016 26.782828 126.24414 27.017578 z "
         transform="translate(0,924.3622)"
         id="rect4519" />
    </g>
  </g>
</svg>
