<?xml version="1.0" encoding="UTF-8" standalone="no"?>
<!-- Created with Inkscape (http://www.inkscape.org/) -->

<svg
   xmlns:dc="http://purl.org/dc/elements/1.1/"
   xmlns:cc="http://creativecommons.org/ns#"
   xmlns:rdf="http://www.w3.org/1999/02/22-rdf-syntax-ns#"
   xmlns:svg="http://www.w3.org/2000/svg"
   xmlns="http://www.w3.org/2000/svg"
   xmlns:xlink="http://www.w3.org/1999/xlink"
   xmlns:sodipodi="http://sodipodi.sourceforge.net/DTD/sodipodi-0.dtd"
   xmlns:inkscape="http://www.inkscape.org/namespaces/inkscape"
   width="512"
   height="128"
   viewBox="0 0 512 128"
   id="svg2"
   version="1.1"
   inkscape:version="0.92.1 unknown"
   sodipodi:docname="logo.svg"
   inkscape:export-filename="/home/william/Documents/git/furnace/logo.png"
   inkscape:export-xdpi="112.5"
   inkscape:export-ydpi="112.5">
  <sodipodi:namedview
     id="base"
     pagecolor="#ffffff"
     bordercolor="#666666"
     borderopacity="1.0"
     inkscape:pageopacity="0.0"
     inkscape:pageshadow="2"
     inkscape:zoom="1.9999999"
     inkscape:cx="56.999962"
     inkscape:cy="-13.269639"
     inkscape:document-units="px"
     inkscape:current-layer="g4527"
     showgrid="false"
     units="px"
     width="512px"
     inkscape:window-width="2160"
     inkscape:window-height="1318"
     inkscape:window-x="0"
     inkscape:window-y="54"
     inkscape:window-maximized="1"
     inkscape:snap-bbox="false"
     inkscape:bbox-nodes="true"
     inkscape:bbox-paths="true"
     inkscape:snap-bbox-midpoints="true"
     inkscape:object-nodes="true"
     inkscape:object-paths="true"
     inkscape:snap-smooth-nodes="true"
     inkscape:snap-nodes="true"
     inkscape:snap-grids="true"
     inkscape:snap-object-midpoints="false"
     showguides="false"
     inkscape:snap-intersection-paths="true">
    <inkscape:grid
       type="xygrid"
       id="grid3338"
       empspacing="8" />
  </sodipodi:namedview>
  <defs
     id="defs4">
    <linearGradient
       inkscape:collect="always"
       id="linearGradient5772">
      <stop
         style="stop-color:#000000;stop-opacity:0.55334985"
         offset="0"
         id="stop5768" />
      <stop
         style="stop-color:#000000;stop-opacity:0.05210918"
         offset="1"
         id="stop5770" />
    </linearGradient>
    <linearGradient
       inkscape:collect="always"
       id="linearGradient5661">
      <stop
         style="stop-color:#000000;stop-opacity:1;"
         offset="0"
         id="stop5657" />
      <stop
         style="stop-color:#000000;stop-opacity:0;"
         offset="1"
         id="stop5659" />
    </linearGradient>
    <linearGradient
       id="linearGradient5402"
       inkscape:collect="always">
      <stop
         id="stop5398"
         offset="0"
         style="stop-color:#880e4f;stop-opacity:1" />
      <stop
         id="stop5400"
         offset="1"
         style="stop-color:#e53935;stop-opacity:1" />
    </linearGradient>
    <inkscape:perspective
       id="perspective4904"
       inkscape:persp3d-origin="64 : 42.666667 : 1"
       inkscape:vp_z="128 : 64 : 1"
       inkscape:vp_y="0 : 1000 : 0"
       inkscape:vp_x="-184 : 40 : 1"
       sodipodi:type="inkscape:persp3d" />
    <linearGradient
       gradientUnits="userSpaceOnUse"
       y2="24"
       x2="104"
       y1="0"
       x1="128"
       id="linearGradient5404"
       xlink:href="#linearGradient5402"
       inkscape:collect="always" />
    <linearGradient
       inkscape:collect="always"
       xlink:href="#linearGradient5402"
       id="linearGradient5617"
       gradientUnits="userSpaceOnUse"
       x1="128"
       y1="0"
       x2="104"
       y2="24" />
    <linearGradient
       inkscape:collect="always"
       xlink:href="#linearGradient5661"
       id="linearGradient5663"
       x1="104"
       y1="24"
       x2="104"
       y2="27"
       gradientUnits="userSpaceOnUse" />
    <linearGradient
       inkscape:collect="always"
       xlink:href="#linearGradient5661"
       id="linearGradient5668"
       gradientUnits="userSpaceOnUse"
       x1="104"
       y1="24"
       x2="104"
       y2="32" />
    <linearGradient
       inkscape:collect="always"
       xlink:href="#linearGradient5402"
       id="linearGradient5684"
       gradientUnits="userSpaceOnUse"
       x1="128"
       y1="0"
       x2="104"
       y2="24" />
    <linearGradient
       inkscape:collect="always"
       xlink:href="#linearGradient5772"
       id="linearGradient5695"
       gradientUnits="userSpaceOnUse"
       x1="128.00005"
       y1="-3.9999999e-05"
       x2="104"
       y2="24"
       gradientTransform="translate(-8.88007e-5,924.36228)" />
    <linearGradient
       inkscape:collect="always"
       xlink:href="#linearGradient5661"
       id="linearGradient5704"
       gradientUnits="userSpaceOnUse"
       x1="104"
       y1="24"
       x2="104"
       y2="32" />
    <linearGradient
       inkscape:collect="always"
       xlink:href="#linearGradient5661"
       id="linearGradient4875"
       x1="64"
       y1="58"
       x2="64"
       y2="66"
       gradientUnits="userSpaceOnUse" />
    <linearGradient
       inkscape:collect="always"
       xlink:href="#linearGradient5661"
       id="linearGradient4882"
       gradientUnits="userSpaceOnUse"
       x1="64"
       y1="58"
       x2="64"
       y2="74" />
    <linearGradient
       inkscape:collect="always"
       xlink:href="#linearGradient5661"
       id="linearGradient4922"
       gradientUnits="userSpaceOnUse"
       x1="64"
       y1="58"
       x2="64"
       y2="74" />
    <linearGradient
       gradientUnits="userSpaceOnUse"
       y2="106"
       x2="56"
       y1="90"
       x1="56"
       id="linearGradient5074"
       xlink:href="#linearGradient5661"
       inkscape:collect="always" />
    <linearGradient
       gradientUnits="userSpaceOnUse"
       y2="128"
       x2="64"
       y1="64"
       x1="64"
       id="linearGradient5126"
       xlink:href="#linearGradient5661"
       inkscape:collect="always" />
    <linearGradient
       inkscape:collect="always"
       xlink:href="#linearGradient5661"
       id="linearGradient5306"
       x1="80"
       y1="98"
       x2="80"
       y2="114"
       gradientUnits="userSpaceOnUse" />
    <linearGradient
       inkscape:collect="always"
       xlink:href="#linearGradient5661"
       id="linearGradient4527"
       x1="104"
       y1="940.36218"
       x2="104"
       y2="956.36218"
       gradientUnits="userSpaceOnUse"
       gradientTransform="translate(0,-924.3622)" />
    <linearGradient
       inkscape:collect="always"
       xlink:href="#linearGradient5661"
       id="linearGradient4794"
       gradientUnits="userSpaceOnUse"
       gradientTransform="translate(0,-924.3622)"
       x1="104"
       y1="940.36218"
       x2="104"
       y2="956.36218" />
    <linearGradient
       inkscape:collect="always"
       xlink:href="#linearGradient5661"
       id="linearGradient4797"
       gradientUnits="userSpaceOnUse"
       gradientTransform="translate(0,-924.3622)"
       x1="104"
       y1="940.36218"
       x2="104"
       y2="956.36218" />
  </defs>
  <metadata
     id="metadata7">
    <rdf:RDF>
      <cc:Work
         rdf:about="">
        <dc:format>image/svg+xml</dc:format>
        <dc:type
           rdf:resource="http://purl.org/dc/dcmitype/StillImage" />
        <dc:title />
      </cc:Work>
    </rdf:RDF>
  </metadata>
  <g
     inkscape:label="Layer 1"
     inkscape:groupmode="layer"
     id="layer1"
     transform="translate(0,-924.3622)">
    <g
       id="g4527">
      <path
         style="opacity:1;fill:#b73c69;fill-opacity:1;fill-rule:evenodd;stroke:none;stroke-width:10;stroke-linecap:round;stroke-linejoin:round;stroke-miterlimit:4;stroke-dasharray:none;stroke-opacity:1"
         d="M 64,0 A 64,64 0 0 0 0,64 64,64 0 0 0 64,128 64,64 0 0 0 128,64 V 32 a 8,8 0 0 0 -2.3457,-5.654297 l 0.002,-0.002 L 123.3125,24 104,4.6875 l -2.26172,-2.2617188 -0.082,-0.082031 -0.002,0.00195 A 8,8 0 0 0 96,0 Z"
         id="path5225"
         transform="translate(0,924.3622)"
         inkscape:connector-curvature="0" />
      <path
         style="opacity:0.02999998;fill:url(#linearGradient5126);fill-opacity:1;fill-rule:nonzero;stroke:none;stroke-width:4;stroke-linecap:round;stroke-linejoin:round;stroke-miterlimit:4;stroke-dasharray:none;stroke-opacity:1"
         d="m 64,4 c -33.137084,2.2e-6 -59.9999978,26.862916 -60,60 0.014316,15.911816 6.34853,31.166353 17.609375,42.4082 l -0.02734,0.01 15.617188,15.61719 A 64,64 0 0 0 64,128 64,64 0 0 0 75.984375,126.8125 l 0.01953,0.0195 a 64,64 0 0 0 0.246094,-0.0606 64,64 0 0 0 3.794922,-0.92773 64,64 0 0 0 2.460937,-0.63281 64,64 0 0 0 3.265625,-1.1543 64,64 0 0 0 2.802735,-1.0293 64,64 0 0 0 2.68164,-1.26172 64,64 0 0 0 3.146485,-1.52734 64,64 0 0 0 2.160156,-1.29492 64,64 0 0 0 3.335938,-2.05274 64,64 0 0 0 3.566403,-2.59765 64,64 0 0 0 0.0117,-0.01 64,64 0 0 0 0.44532,-0.38672 64,64 0 0 0 2.66015,-2.30468 64,64 0 0 0 1.49805,-1.29688 64,64 0 0 0 0.33398,-0.3125 64,64 0 0 0 0.43164,-0.45703 64,64 0 0 0 2.73242,-2.89062 64,64 0 0 0 0.72071,-0.76368 64,64 0 0 0 0.57226,-0.65234 64,64 0 0 0 0.008,-0.008 64,64 0 0 0 0.0117,-0.0137 64,64 0 0 0 3.18555,-4.13086 64,64 0 0 0 0.7793,-1.089848 64,64 0 0 0 2.51562,-4.042968 64,64 0 0 0 1.15625,-2.015625 64,64 0 0 0 0.73047,-1.384766 A 64,64 0 0 0 128,64 V 45.65625 43.148438 32 a 8,8 0 0 0 -0.041,-0.798828 8,8 0 0 0 -1.71484,-4.183594 C 124.72959,25.114948 122.43184,24.005 120,24 H 108.85156 108 c -0.27614,0 -0.54625,-0.02875 -0.80664,-0.08203 -0.78109,-0.159936 -1.4786,-0.54695 -2.02148,-1.089844 C 104.44802,22.104265 104,21.10456 104,20 V 19.335938 C 93.035544,9.5030702 78.804615,4.0128388 64,4 Z m 62.24414,23.017578 a 8,8 0 0 0 -0.58984,-0.671875 c 0.20898,0.21279 0.40586,0.437125 0.58984,0.671875 z"
         transform="translate(0,924.3622)"
         id="path5118"
         inkscape:connector-curvature="0" />
      <g
         style="opacity:0.35"
         id="g5766">
        <path
           style="opacity:1;fill:#ffffff;fill-opacity:0.25558316;fill-rule:evenodd;stroke:#ffffff;stroke-width:4;stroke-linecap:round;stroke-linejoin:round;stroke-miterlimit:4;stroke-dasharray:none;stroke-opacity:1"
           d="M 64,996.36221 A 24,16 0 0 0 40,1012.3622 H 88 A 24,16 0 0 0 64,996.36221 Z"
           id="path4532"
           inkscape:connector-curvature="0" />
        <path
           transform="translate(0,924.3622)"
           style="color:#000000;font-style:normal;font-variant:normal;font-weight:normal;font-stretch:normal;font-size:medium;line-height:normal;font-family:sans-serif;font-variant-ligatures:normal;font-variant-position:normal;font-variant-caps:normal;font-variant-numeric:normal;font-variant-alternates:normal;font-feature-settings:normal;text-indent:0;text-align:start;text-decoration:none;text-decoration-line:none;text-decoration-style:solid;text-decoration-color:#000000;letter-spacing:normal;word-spacing:normal;text-transform:none;writing-mode:lr-tb;direction:ltr;text-orientation:mixed;dominant-baseline:auto;baseline-shift:baseline;text-anchor:start;white-space:normal;shape-padding:0;clip-rule:nonzero;display:inline;overflow:visible;visibility:visible;opacity:1;isolation:auto;mix-blend-mode:normal;color-interpolation:sRGB;color-interpolation-filters:linearRGB;solid-color:#000000;solid-opacity:1;vector-effect:none;fill:#ffffff;fill-opacity:1;fill-rule:evenodd;stroke:none;stroke-width:3.99999952;stroke-linecap:round;stroke-linejoin:round;stroke-miterlimit:4;stroke-dasharray:none;stroke-dashoffset:0;stroke-opacity:1;color-rendering:auto;image-rendering:auto;shape-rendering:auto;text-rendering:auto;enable-background:accumulate"
           d="M 64,4 C 30.886604,4 4,30.8866 4,64 c 0,33.1134 26.886604,60 60,60 33.113396,0 60,-26.8866 60,-60 0,-15.363275 -5.79483,-29.380785 -15.30664,-40 H 108 c -2.20913,0 -4,-1.79088 -4,-4 V 19.306641 C 93.380784,9.7948268 79.363273,4 64,4 Z m 0,4 c 30.951635,0 56,25.04837 56,56 0,30.9516 -25.048365,56 -56,56 C 33.048365,120 8,94.9516 8,64 8,33.04837 33.048365,8 64,8 Z"
           id="path5670"
           inkscape:connector-curvature="0" />
        <rect
           style="opacity:1;fill:none;fill-opacity:1;fill-rule:evenodd;stroke:#ffffff;stroke-width:4;stroke-linecap:round;stroke-linejoin:round;stroke-miterlimit:4;stroke-dasharray:none;stroke-opacity:1"
           id="rect5672"
           width="64"
           height="64"
           x="32"
           y="956.36218"
           ry="4" />
        <path
           style="opacity:1;fill:#010101;fill-opacity:0.25558316;fill-rule:evenodd;stroke:#ffffff;stroke-width:3.99999976;stroke-linecap:round;stroke-linejoin:round;stroke-miterlimit:4;stroke-dasharray:none;stroke-opacity:1"
           d="m 64,972.3622 a 16,8.000005 0 0 0 -16,8 h 32 a 16,8.000005 0 0 0 -16,-8 z"
           id="path4532-3"
           inkscape:connector-curvature="0" />
      </g>
      <path
         style="color:#000000;font-style:normal;font-variant:normal;font-weight:normal;font-stretch:normal;font-size:medium;line-height:normal;font-family:sans-serif;font-variant-ligatures:normal;font-variant-position:normal;font-variant-caps:normal;font-variant-numeric:normal;font-variant-alternates:normal;font-feature-settings:normal;text-indent:0;text-align:start;text-decoration:none;text-decoration-line:none;text-decoration-style:solid;text-decoration-color:#000000;letter-spacing:normal;word-spacing:normal;text-transform:none;writing-mode:lr-tb;direction:ltr;text-orientation:mixed;dominant-baseline:auto;baseline-shift:baseline;text-anchor:start;white-space:normal;shape-padding:0;clip-rule:nonzero;visibility:visible;opacity:0.01000001;isolation:auto;mix-blend-mode:normal;color-interpolation:sRGB;color-interpolation-filters:linearRGB;solid-color:#000000;solid-opacity:1;fill:#000000;fill-opacity:1;fill-rule:evenodd;stroke:none;stroke-width:4;stroke-linecap:round;stroke-linejoin:round;stroke-miterlimit:4;stroke-dasharray:none;stroke-dashoffset:0;stroke-opacity:1;color-rendering:auto;image-rendering:auto;shape-rendering:auto;text-rendering:auto"
         d="m 64,4 c -33.137084,2.2e-6 -59.9999978,26.862916 -60,60 0.014316,15.911816 6.34853,31.16635 17.609375,42.4082 l -0.02734,0.01 15.617188,15.61719 A 64,64 0 0 0 64,128 64,64 0 0 0 128,64 V 63.53125 45.65625 43.148438 32 a 8,8 0 0 0 -1.75586,-4.982422 C 124.72959,25.114948 122.43184,24.005 120,24 H 108.85156 108 c -0.27614,0 -0.54628,-0.02872 -0.80664,-0.08203 -0.78117,-0.159852 -1.4786,-0.546949 -2.02148,-1.089844 C 104.44801,22.104265 104,21.10456 104,20 V 19.335938 C 93.035544,9.5030707 78.804615,4.0128388 64,4 Z m 62.24414,23.017578 a 8,8 0 0 0 -0.58984,-0.671875 c 0.20898,0.21279 0.40586,0.437125 0.58984,0.671875 z"
         transform="translate(0,924.3622)"
         id="path5191"
         inkscape:connector-curvature="0" />
      <path
         style="color:#000000;font-style:normal;font-variant:normal;font-weight:normal;font-stretch:normal;font-size:medium;line-height:normal;font-family:sans-serif;font-variant-ligatures:normal;font-variant-position:normal;font-variant-caps:normal;font-variant-numeric:normal;font-variant-alternates:normal;font-feature-settings:normal;text-indent:0;text-align:start;text-decoration:none;text-decoration-line:none;text-decoration-style:solid;text-decoration-color:#000000;letter-spacing:normal;word-spacing:normal;text-transform:none;writing-mode:lr-tb;direction:ltr;text-orientation:mixed;dominant-baseline:auto;baseline-shift:baseline;text-anchor:start;white-space:normal;shape-padding:0;clip-rule:nonzero;visibility:visible;opacity:0.02999998;isolation:auto;mix-blend-mode:normal;color-interpolation:sRGB;color-interpolation-filters:linearRGB;solid-color:#000000;solid-opacity:1;fill:url(#linearGradient5306);fill-opacity:1;fill-rule:evenodd;stroke:none;stroke-width:4;stroke-linecap:round;stroke-linejoin:round;stroke-miterlimit:4;stroke-dasharray:none;stroke-dashoffset:0;stroke-opacity:1;color-rendering:auto;image-rendering:auto;shape-rendering:auto;text-rendering:auto"
         d="m 36,30 c -3.289406,0 -6,2.71059 -6,6 v 56 c 0,1.6447 0.6768,3.145575 1.765625,4.234375 l 31.75,31.748045 A 64,64 0 0 0 64,128 64,64 0 0 0 128,64 V 63.53125 L 96.234375,31.765625 C 95.145551,30.676805 93.644704,30 92,30 Z"
         id="path5298"
         transform="translate(0,924.3622)"
         inkscape:connector-curvature="0" />
      <path
         id="path5066"
         transform="translate(0,924.3622)"
         d="M 64,70 C 57.01229,70 50.653734,71.867557 45.919922,75.023438 41.18611,78.179298 38,82.7711 38,88 a 2.0002,2.0002 0 0 0 0.587891,1.414062 2.0002,2.0002 0 0 0 0.01953,0.02148 L 76.003906,126.83203 A 64,64 0 0 0 112.87891,105.21094 L 85.375,77.707031 c -0.0094,-0.0094 -0.01988,-0.01797 -0.0293,-0.02734 -0.126648,-0.126133 -0.259781,-0.247666 -0.390625,-0.371094 -0.124028,-0.116999 -0.245351,-0.235089 -0.373047,-0.34961 -0.08007,-0.07181 -0.16461,-0.140116 -0.246093,-0.210937 -0.183072,-0.159118 -0.364699,-0.318635 -0.554688,-0.472656 -0.0018,-0.0015 -0.0041,-0.0024 -0.0059,-0.0039 C 83.23629,75.834732 82.670512,75.417046 82.080078,75.023438 77.346266,71.867558 70.98771,70 64,70 Z"
         style="opacity:0.02999998;fill:url(#linearGradient5074);fill-opacity:1;fill-rule:evenodd;stroke:none;stroke-width:4;stroke-linecap:round;stroke-linejoin:round;stroke-miterlimit:4;stroke-dasharray:none;stroke-opacity:1"
         inkscape:connector-curvature="0" />
      <path
         sodipodi:nodetypes="cccssccccc"
         inkscape:connector-curvature="0"
         id="rect5381"
         d="m 101.65617,926.70603 -0.002,0.002 c 1.50065,1.49925 2.3444,3.53309 2.34575,5.6543 v 12.00001 c 1e-5,2.20912 1.79086,3.99999 3.99999,3.99999 h 12.00001 c 2.43184,0.005 4.7296,1.11495 6.24415,3.01758 -0.18398,-0.23475 -0.38088,-0.45908 -0.58985,-0.67187 l 0.002,-0.002 c -8.19955,-8.19936 -16.76192,-16.76181 -24.00004,-23.99996 z"
         style="opacity:1;fill:url(#linearGradient5695);fill-opacity:1;fill-rule:evenodd;stroke:none;stroke-width:10;stroke-linecap:round;stroke-linejoin:round;stroke-miterlimit:4;stroke-dasharray:none;stroke-opacity:1" />
      <path
         style="opacity:0.02999998;fill:url(#linearGradient4922);fill-opacity:1;fill-rule:evenodd;stroke:none;stroke-width:3.99999976;stroke-linecap:round;stroke-linejoin:round;stroke-miterlimit:4;stroke-dasharray:none;stroke-opacity:1"
         d="M 64,46 C 59.311504,46 55.050406,46.924985 51.791016,48.554688 48.531626,50.184376 46.000004,52.70998 46,56 a 2.0001999,2.0001999 0 0 0 0.587891,1.414062 2.0001999,2.0001999 0 0 0 0.01953,0.02148 L 103.46484,114.29297 A 64,64 0 0 0 121.25781,92.533203 L 79.751953,51.027344 c -0.05212,-0.05212 -0.112466,-0.0991 -0.166015,-0.150391 -0.102238,-0.09789 -0.209163,-0.192264 -0.316407,-0.287109 -0.195851,-0.17327 -0.398102,-0.340877 -0.609375,-0.503906 -0.106506,-0.08219 -0.21216,-0.164581 -0.322265,-0.244141 -0.222775,-0.160978 -0.45327,-0.31471 -0.689453,-0.464844 -0.121709,-0.07737 -0.240322,-0.156 -0.365235,-0.230469 C 76.935324,48.939103 76.578157,48.739273 76.208984,48.554688 72.949594,46.924988 68.688496,46 64,46 Z"
         id="path4867"
         transform="translate(0,924.3622)"
         inkscape:connector-curvature="0" />
      <path
         style="opacity:0.2;fill:url(#linearGradient4797);fill-opacity:1;fill-rule:evenodd;stroke:none;stroke-width:4;stroke-linecap:round;stroke-linejoin:round;stroke-miterlimit:4;stroke-dasharray:none;stroke-opacity:1"
         d="m 105.17188,22.828125 7.77734,7.779297 3.53516,3.535156 L 128,45.658203 V 32 a 8,8 0 0 0 -1.75586,-4.982422 C 124.72959,25.114948 122.43184,24.005 120,24 h -12 c -1.10457,0 -2.10427,-0.448015 -2.82812,-1.171875 z m 21.07226,4.189453 a 8,8 0 0 0 -0.58984,-0.671875 c 0.20898,0.21279 0.40586,0.437125 0.58984,0.671875 z"
         transform="translate(0,924.3622)"
         id="rect4519"
         inkscape:connector-curvature="0" />
      <text
         xml:space="preserve"
         style="font-style:normal;font-weight:normal;font-size:40px;line-height:125%;font-family:sans-serif;letter-spacing:0px;word-spacing:0px;fill:#000000;fill-opacity:1;stroke:none;stroke-width:1px;stroke-linecap:butt;stroke-linejoin:miter;stroke-opacity:1"
         x="314.97198"
         y="1023.5409"
         id="text4525"><tspan
           sodipodi:role="line"
           id="tspan4523"
           x="314.97198"
           y="1023.5409"
           style="font-style:normal;font-variant:normal;font-weight:normal;font-stretch:normal;font-size:96px;font-family:'Ubuntu Condensed';-inkscape-font-specification:'Ubuntu Condensed, ';text-align:center;writing-mode:lr-tb;text-anchor:middle">Furnace</tspan></text>
    </g>
  </g>
</svg>
